<?xml version="1.0" encoding="utf-8"?>
<svg viewBox="0 0 500 500" xmlns="http://www.w3.org/2000/svg">
  <path d="M 53.526 5.804 C 26.653 5.804 4.492 27.95 4.492 54.823 C 4.492 60.662 7.607 66.059 12.665 68.981 C 17.724 71.899 23.954 71.899 29.013 68.981 C 34.071 66.059 37.186 60.662 37.186 54.823 C 37.186 45.489 44.192 38.483 53.526 38.483 L 184.215 38.483 C 193.548 38.483 200.554 45.489 200.554 54.823 L 200.554 185.52 C 200.554 194.854 193.548 201.86 184.215 201.86 L 53.526 201.86 C 44.192 201.86 37.186 194.854 37.186 185.52 L 37.186 152.822 C 37.186 146.984 34.071 141.585 29.013 138.667 C 23.954 135.746 17.724 135.746 12.665 138.667 C 7.607 141.585 4.492 146.984 4.492 152.822 L 4.492 185.52 C 4.492 212.393 26.652 234.539 53.526 234.539 L 184.215 234.539 C 211.087 234.539 233.248 212.393 233.248 185.52 L 233.248 54.823 C 233.248 27.95 211.088 5.804 184.215 5.804 L 53.526 5.804 Z M 314.959 5.804 C 288.086 5.804 265.941 27.95 265.941 54.823 L 265.941 185.52 C 265.941 212.393 288.086 234.539 314.959 234.539 L 445.648 234.539 C 472.52 234.539 494.682 212.393 494.682 185.52 L 494.682 54.823 C 494.682 27.95 472.521 5.804 445.648 5.804 L 314.959 5.804 Z M 314.959 38.483 L 445.648 38.483 C 454.981 38.483 462.002 45.489 462.002 54.823 L 462.002 185.52 C 462.002 194.854 454.982 201.86 445.648 201.86 L 314.959 201.86 C 305.626 201.86 298.62 194.854 298.62 185.52 L 298.62 54.823 C 298.62 45.489 305.626 38.483 314.959 38.483 Z M 53.526 267.237 C 26.653 267.237 4.492 289.397 4.492 316.27 L 4.492 446.96 C 4.492 473.832 26.652 495.993 53.526 495.993 L 184.215 495.993 C 211.087 495.993 233.248 473.833 233.248 446.96 L 233.248 316.27 C 233.248 289.398 211.088 267.237 184.215 267.237 L 53.526 267.237 Z M 380.271 267.237 C 317.298 267.237 265.941 318.67 265.941 381.652 C 265.941 444.625 317.298 495.991 380.271 495.991 C 443.247 495.991 494.685 444.62 494.685 381.652 C 494.685 318.675 443.252 267.237 380.271 267.237 Z M 53.526 299.916 L 184.215 299.916 C 193.548 299.916 200.554 306.936 200.554 316.27 L 200.554 446.96 C 200.554 456.293 193.548 463.299 184.215 463.299 L 53.526 463.299 C 44.192 463.299 37.186 456.293 37.186 446.96 L 37.186 316.27 C 37.186 306.937 44.192 299.916 53.526 299.916 Z M 380.271 299.916 C 425.584 299.916 462.002 336.334 462.002 381.647 C 462.002 426.96 425.584 463.298 380.271 463.298 C 334.958 463.298 298.621 426.96 298.621 381.647 C 298.621 336.334 334.958 299.916 380.271 299.916 Z" fill-rule="evenodd" style="fill: rgb(255, 255, 255);"/>
</svg>