<?xml version="1.0" encoding="UTF-8"?>
<svg width="700pt" height="700pt" version="1.1" viewBox="0 0 700 700" xmlns="http://www.w3.org/2000/svg">
 <path d="m140.02 17.5c-28.781 0-52.516 23.719-52.516 52.5 0 6.2539 3.3359 12.035 8.7539 15.164 5.418 3.125 12.09 3.125 17.508 0 5.418-3.1289 8.7539-8.9102 8.7539-15.164 0-9.9961 7.5039-17.5 17.5-17.5h139.97c9.9961 0 17.5 7.5039 17.5 17.5v139.98c0 9.9961-7.5039 17.5-17.5 17.5h-139.97c-9.9961 0-17.5-7.5039-17.5-17.5v-35.02c0-6.2539-3.3359-12.035-8.7539-15.16-5.418-3.1289-12.09-3.1289-17.508 0-5.418 3.125-8.7539 8.9062-8.7539 15.16v35.02c0 28.781 23.734 52.5 52.516 52.5h139.97c28.781 0 52.516-23.719 52.516-52.5v-139.98c0-28.781-23.734-52.5-52.516-52.5zm280 0c-28.781 0-52.5 23.719-52.5 52.5v139.98c0 28.781 23.719 52.5 52.5 52.5h139.97c28.781 0 52.516-23.719 52.516-52.5v-139.98c0-28.781-23.734-52.5-52.516-52.5zm0 35h139.97c9.9961 0 17.516 7.5039 17.516 17.5v139.98c0 9.9961-7.5195 17.5-17.516 17.5h-139.97c-9.9961 0-17.5-7.5039-17.5-17.5v-139.98c0-9.9961 7.5039-17.5 17.5-17.5zm-280 245c-28.781 0-52.516 23.734-52.516 52.516v139.97c0 28.781 23.734 52.516 52.516 52.516h139.97c28.781 0 52.516-23.734 52.516-52.516v-139.97c0-28.781-23.734-52.516-52.516-52.516zm349.95 0c-67.445 0-122.45 55.086-122.45 122.54 0 67.445 55.004 122.46 122.45 122.46 67.449 0 122.54-55.02 122.54-122.46 0-67.449-55.086-122.54-122.54-122.54zm-349.95 35h139.97c9.9961 0 17.5 7.5195 17.5 17.516v139.97c0 9.9961-7.5039 17.5-17.5 17.5h-139.97c-9.9961 0-17.5-7.5039-17.5-17.5v-139.97c0-9.9961 7.5039-17.516 17.5-17.516zm349.95 0c48.531 0 87.535 39.004 87.535 87.535s-39.004 87.449-87.535 87.449-87.449-38.918-87.449-87.449 38.918-87.535 87.449-87.535z" fill-rule="evenodd"/>
</svg>
