<?xml version="1.0" encoding="UTF-8"?>
<svg width="700pt" height="700pt" version="1.1" viewBox="0 0 700 700" xmlns="http://www.w3.org/2000/svg">
 <path d="m494.12 35.012c-8.9844 0-17.973 3.3906-24.758 10.172l-161.04 161.05c-2.2031 2.1836-3.4492 5.1562-3.4531 8.2578-0.007813 3.1055 1.2188 6.082 3.4141 8.2773 2.1914 2.1953 5.1719 3.4258 8.2734 3.4219 3.1016-0.007812 6.0781-1.2461 8.2617-3.4492l92.367-92.367 82.496 82.465-237.26 237.27-82.477-82.488 46.438-46.438c2.2031-2.1836 3.4453-5.1562 3.4531-8.2617 0.007812-3.1016-1.2188-6.0781-3.4141-8.2734-2.1914-2.1953-5.1719-3.4258-8.2734-3.4219-3.1016 0.003906-6.0781 1.2461-8.2617 3.4492l-53.992 53.992c-1.3047 1.293-2.2852 2.8789-2.8594 4.625l-47.465 146.43c-1.3594 4.1719-0.26172 8.7539 2.8398 11.855 3.1016 3.1055 7.6836 4.207 11.855 2.8516l146.46-47.441c1.7539-0.55859 3.3516-1.5273 4.6602-2.8242l313.47-313.47c13.57-13.57 13.57-35.949 0-49.516l-65.988-65.98c-6.7852-6.7812-15.762-10.172-24.746-10.172zm0 23.141c2.9453 0 5.8906 1.1836 8.2461 3.543l65.98 65.977c4.7109 4.7148 4.7109 11.785 0 16.496l-52.172 52.172-82.484-82.477 52.168-52.168c2.3594-2.3594 5.3125-3.543 8.2617-3.543zm-74.125 140.18c-6.4414 0-11.668 5.2266-11.668 11.668 0 3.0938 1.2305 6.0625 3.418 8.25s5.1562 3.418 8.25 3.418 6.0625-1.2305 8.25-3.418 3.418-5.1562 3.418-8.25-1.2305-6.0625-3.418-8.25-5.1562-3.418-8.25-3.418zm-29.406 29.078c-3.0273 0.09375-5.8984 1.3594-8.0078 3.5312l-134.18 134.13c-2.2773 2.1719-3.582 5.1719-3.6172 8.3203-0.03125 3.1445 1.2031 6.1719 3.4336 8.3945 2.2266 2.2227 5.2578 3.4531 8.4062 3.4102 3.1484-0.042969 6.1445-1.3555 8.3086-3.6406l134.13-134.13c3.4414-3.3555 4.4727-8.4766 2.6016-12.902-1.875-4.4258-6.2734-7.25-11.078-7.1133zm-221.56 162.27 71.32 71.32-105.52 34.18z" fill-rule="evenodd"/>
</svg>
