<?xml version="1.0" encoding="utf-8"?>
<svg viewBox="0 0 500 500" xmlns="http://www.w3.org/2000/svg">
  <path d="M 393.72 3.442 C 384.736 3.442 375.747 6.833 368.962 13.614 L 207.922 174.664 C 205.719 176.848 204.473 179.82 204.469 182.922 C 204.461 186.027 205.688 189.004 207.883 191.199 C 210.074 193.394 213.055 194.625 216.156 194.621 C 219.258 194.613 222.235 193.375 224.418 191.172 L 316.785 98.805 L 399.281 181.27 L 162.021 418.54 L 79.544 336.052 L 125.982 289.614 C 128.185 287.43 129.427 284.458 129.435 281.352 C 129.443 278.251 128.216 275.274 126.021 273.079 C 123.83 270.883 120.849 269.653 117.748 269.657 C 114.646 269.661 111.67 270.903 109.486 273.106 L 55.494 327.098 C 54.189 328.391 53.209 329.977 52.635 331.723 L 5.17 478.153 C 3.81 482.325 4.908 486.907 8.009 490.008 C 11.111 493.114 15.693 494.215 19.864 492.86 L 166.324 445.419 C 168.078 444.86 169.676 443.891 170.985 442.594 L 484.455 129.124 C 498.025 115.554 498.025 93.175 484.455 79.608 L 418.467 13.628 C 411.681 6.847 402.705 3.456 393.721 3.456 L 393.72 3.442 Z M 393.72 26.583 C 396.665 26.583 399.611 27.767 401.966 30.126 L 467.946 96.103 C 472.657 100.818 472.657 107.888 467.946 112.599 L 415.774 164.771 L 333.29 82.294 L 385.458 30.126 C 387.818 27.767 390.771 26.583 393.72 26.583 L 393.72 26.583 Z M 319.595 166.763 C 313.154 166.763 307.927 171.99 307.927 178.431 C 307.927 181.525 309.158 184.494 311.345 186.681 C 313.533 188.869 316.501 190.099 319.595 190.099 C 322.689 190.099 325.658 188.869 327.845 186.681 C 330.033 184.494 331.263 181.525 331.263 178.431 C 331.263 175.337 330.033 172.369 327.845 170.181 C 325.658 167.994 322.689 166.763 319.595 166.763 Z M 290.189 195.841 C 287.162 195.935 284.291 197.2 282.181 199.372 L 148.001 333.502 C 145.724 335.674 144.419 338.674 144.384 341.823 C 144.353 344.967 145.587 347.994 147.818 350.217 C 150.044 352.44 153.075 353.67 156.224 353.627 C 159.372 353.584 162.368 352.272 164.532 349.987 L 298.662 215.857 C 302.104 212.501 303.135 207.38 301.264 202.955 C 299.389 198.529 294.991 195.705 290.186 195.841 L 290.189 195.841 Z M 68.629 358.111 L 139.949 429.431 L 34.429 463.611 L 68.629 358.111 Z" fill-rule="evenodd" style="fill: rgb(255, 255, 255);"/>
</svg>