<?xml version="1.0" encoding="UTF-8"?>
<svg width="700pt" height="700pt" version="1.1" viewBox="0 0 700 700" xmlns="http://www.w3.org/2000/svg">
 <path d="m209.96 17.5c-22.5 0-42.965 14.383-49.867 36.164l-36.812 116.07c-0.58984 1.9023-0.84766 3.8906-0.76953 5.8789v34.367c0 22.641 14.707 42.09 34.984 49.391v20.625c-0.33594 23.664 35.336 23.664 35 0v-17.516h17.465c13.406 0 25.672-5.1797 35-13.586 9.3281 8.4141 21.605 13.586 35.016 13.586h35.02c13.406 0 25.672-5.1797 35-13.586 9.3281 8.4141 21.605 13.586 35.016 13.586h35c13.406 0 25.672-5.1758 34.984-13.586 9.3125 8.4102 21.559 13.586 34.965 13.586h17.535v227.52c0 9.9961-7.5039 17.5-17.5 17.5h-70v-87.5c0-28.781-23.719-52.5-52.5-52.5h-35c-28.781 0-52.5 23.719-52.5 52.5v87.5h-70c-9.9961 0-17.5-7.5039-17.5-17.5v-105c0.33594-23.664-35.336-23.664-35 0v105c0 28.781 23.719 52.5 52.5 52.5h280c28.781 0 52.5-23.719 52.5-52.5v-230.63c20.281-7.293 35-26.746 35-49.391v-35.016h-0.066406c0.007812-1.7734-0.25-3.5352-0.76953-5.2305l-36.832-116.07c-6.9062-21.77-27.363-36.164-49.867-36.164zm0 35h47.629l-26.266 105.04h-67.418l29.531-93.277c2.2031-6.957 8.8789-11.758 16.523-11.758zm83.688 0h38.848v105.04h-65.113zm73.863 0h38.828l26.266 105.04h-65.094zm74.887 0h47.562c7.6406 0 14.332 4.793 16.543 11.758l29.582 93.277h-67.418zm-284.89 139.96h69.949v17.516c0 9.9961-7.5039 17.5-17.5 17.5h-34.934c-9.9961 0-17.516-7.5039-17.516-17.5zm104.96 0h70.02v17.516c0 9.9961-7.5039 17.5-17.5 17.5h-35.016c-9.9961 0-17.5-7.5039-17.5-17.5zm105.04 0h70.016v17.516c0 9.9961-7.5195 17.5-17.516 17.5h-35c-9.9961 0-17.5-7.5039-17.5-17.5zm104.95 0h70.016v17.516c0 9.9961-7.5039 17.5-17.5 17.5h-35.016c-9.9961 0-17.5-7.5039-17.5-17.5zm-139.96 210.04h35c10 0 17.5 7.5039 17.5 17.5v87.5h-70v-87.5c0-9.9961 7.5-17.5 17.5-17.5z" fill-rule="evenodd"/>
</svg>
