<?xml version="1.0" encoding="utf-8"?>
<svg viewBox="0 0 500 500" xmlns="http://www.w3.org/2000/svg">
  <path d="M 117.211 4.01 C 96.051 4.01 76.804 17.535 70.313 38.02 L 35.692 147.181 C 35.138 148.97 34.895 150.841 34.968 152.709 L 34.968 185.03 C 34.968 206.324 48.8 224.615 67.87 231.481 L 67.87 250.879 C 67.554 273.134 101.102 273.134 100.785 250.879 L 100.785 234.406 L 117.211 234.406 C 129.819 234.406 141.355 229.534 150.128 221.629 C 158.901 229.542 170.446 234.406 183.06 234.406 L 215.995 234.406 C 228.602 234.406 240.138 229.534 248.91 221.629 C 257.683 229.542 269.23 234.406 281.842 234.406 L 314.759 234.406 C 327.367 234.406 338.903 229.538 347.661 221.629 C 356.418 229.538 367.936 234.406 380.545 234.406 L 397.036 234.406 L 397.036 448.381 C 397.036 457.782 389.978 464.839 380.576 464.839 L 314.744 464.839 L 314.744 382.549 C 314.744 355.48 292.437 333.175 265.37 333.175 L 232.453 333.175 C 205.386 333.175 183.078 355.48 183.078 382.549 L 183.078 464.839 L 117.246 464.839 C 107.844 464.839 100.786 457.782 100.786 448.381 L 100.786 349.632 C 101.103 327.377 67.555 327.377 67.871 349.632 L 67.871 448.381 C 67.871 475.448 90.177 497.756 117.246 497.756 L 380.576 497.756 C 407.645 497.756 429.951 475.448 429.951 448.381 L 429.951 231.48 C 449.026 224.622 462.868 206.327 462.868 185.029 L 462.868 152.098 L 462.806 152.098 C 462.813 150.431 462.57 148.774 462.082 147.18 L 427.443 38.019 C 420.947 17.545 401.708 4.009 380.545 4.009 L 117.211 4.01 Z M 117.211 36.925 L 162.005 36.925 L 137.302 135.712 L 73.898 135.712 L 101.672 47.989 C 103.743 41.446 110.021 36.93 117.211 36.93 L 117.211 36.925 Z M 195.918 36.925 L 232.453 36.925 L 232.453 135.712 L 171.216 135.712 L 195.918 36.925 Z M 265.384 36.925 L 301.9 36.925 L 326.602 135.712 L 265.384 135.712 L 265.384 36.925 Z M 335.812 36.925 L 380.544 36.925 C 387.728 36.925 394.022 41.432 396.101 47.983 L 423.922 135.708 L 360.517 135.708 L 335.812 36.925 Z M 67.882 168.553 L 133.666 168.553 L 133.666 185.027 C 133.666 194.429 126.61 201.485 117.209 201.485 L 84.354 201.485 C 74.954 201.485 67.881 194.429 67.881 185.027 L 67.882 168.553 Z M 166.593 168.553 L 232.446 168.553 L 232.446 185.027 C 232.446 194.429 225.388 201.485 215.987 201.485 L 183.056 201.485 C 173.655 201.485 166.597 194.429 166.597 185.027 L 166.593 168.553 Z M 265.38 168.553 L 331.228 168.553 L 331.228 185.027 C 331.228 194.429 324.157 201.485 314.755 201.485 L 281.839 201.485 C 272.438 201.485 265.38 194.429 265.38 185.027 L 265.38 168.553 Z M 364.083 168.553 L 429.931 168.553 L 429.931 185.027 C 429.931 194.429 422.873 201.485 413.472 201.485 L 380.54 201.485 C 371.14 201.485 364.083 194.429 364.083 185.027 L 364.083 168.553 Z M 232.454 366.09 L 265.371 366.09 C 274.777 366.09 281.829 373.147 281.829 382.549 L 281.829 464.839 L 215.997 464.839 L 215.997 382.549 C 215.997 373.147 223.05 366.09 232.454 366.09 Z" fill-rule="evenodd" style="fill: rgb(255, 255, 255);"/>
</svg>