<?xml version="1.0" encoding="utf-8"?>
<svg viewBox="0 0 500 500" xmlns="http://www.w3.org/2000/svg">
  <path d="M 120.254 37.157 C 82.265 36.127 57.185 79.15 76.726 111.726 L 145.35 226.101 C 148.317 231.042 153.657 234.065 159.419 234.065 L 217.402 234.065 C 226.775 234.065 233.812 241.101 233.812 250.475 C 233.812 259.848 226.775 266.885 217.402 266.885 L 159.439 266.885 C 153.673 266.885 148.332 269.907 145.365 274.848 L 76.727 389.271 C 64.728 409.278 69.284 432.996 82.369 447.747 C 95.452 462.501 118.907 469.644 139.87 459.157 L 468.039 295.007 C 485.995 286.025 495.988 268.079 495.988 250.457 C 495.988 232.83 485.996 214.9 468.039 205.919 L 272.241 107.991 C 268.347 106.042 263.841 105.723 259.714 107.101 C 255.581 108.475 252.167 111.437 250.223 115.328 C 248.274 119.222 247.955 123.731 249.333 127.859 C 250.71 131.99 253.669 135.404 257.563 137.349 L 453.361 235.286 C 460.571 238.891 463.171 244.514 463.171 250.463 C 463.171 256.408 460.571 262.048 453.361 265.653 L 125.192 429.803 C 117.358 433.722 111.665 431.298 106.94 425.975 C 102.218 420.65 100.31 413.773 104.873 406.166 L 168.736 299.705 L 217.406 299.705 C 244.394 299.705 266.636 277.463 266.636 250.474 C 266.636 223.484 244.394 201.243 217.406 201.243 L 168.72 201.243 L 104.873 94.829 C 97.743 82.942 105.519 69.598 119.361 69.971 C 122.016 70.034 124.024 70.561 125.192 71.144 C 142.548 79.822 155.706 86.397 177.244 97.169 C 181.138 99.115 185.647 99.437 189.775 98.059 C 193.907 96.682 197.321 93.722 199.266 89.829 C 201.215 85.935 201.533 81.429 200.156 77.298 C 198.779 73.17 195.819 69.756 191.925 67.811 C 170.379 57.035 157.218 50.459 139.874 41.785 C 133.181 38.438 126.382 37.319 120.258 37.151 L 120.254 37.157 Z M 20.489 168.393 C 14.625 168.393 9.203 171.524 6.273 176.602 C 3.339 181.683 3.339 187.943 6.273 193.024 C 9.203 198.1 14.625 201.232 20.489 201.232 L 53.309 201.232 C 59.177 201.232 64.596 198.1 67.529 193.024 C 70.462 187.943 70.462 181.683 67.529 176.602 C 64.596 171.524 59.177 168.393 53.309 168.393 L 20.489 168.393 Z M 20.489 234.053 C 14.625 234.053 9.203 237.182 6.273 242.262 C 3.339 247.342 3.339 253.599 6.273 258.68 C 9.203 263.761 14.625 266.887 20.489 266.887 L 86.149 266.887 C 92.013 266.887 97.435 263.761 100.365 258.68 C 103.298 253.599 103.298 247.342 100.365 242.262 C 97.435 237.182 92.013 234.053 86.149 234.053 L 20.489 234.053 Z M 20.489 299.709 C 14.625 299.709 9.203 302.838 6.273 307.918 C 3.339 312.999 3.339 319.255 6.273 324.336 C 9.203 329.417 14.625 332.544 20.489 332.544 L 53.309 332.544 C 59.177 332.544 64.596 329.417 67.529 324.336 C 70.462 319.255 70.462 312.999 67.529 307.918 C 64.596 302.838 59.177 299.709 53.309 299.709 L 20.489 299.709 Z" style="fill: rgb(255, 255, 255);"/>
</svg>