<?xml version="1.0" encoding="utf-8"?>
<svg viewBox="0 0 500 500" xmlns="http://www.w3.org/2000/svg">
  <path d="M 205.722 7.07 C 186.534 7.07 170.71 22.894 170.71 42.082 L 170.71 53.746 L 77.355 53.746 C 58.167 53.746 42.386 69.527 42.386 88.715 L 42.386 135.391 C 42.39 141.817 47.585 147.032 54.011 147.059 L 65.699 147.059 L 65.699 462.059 C 65.699 481.247 81.511 497.059 100.699 497.059 L 380.699 497.059 C 399.887 497.059 415.699 481.247 415.699 462.059 L 415.699 147.059 L 427.355 147.059 C 433.796 147.059 439.019 141.836 439.019 135.391 L 439.019 88.715 C 439.019 69.527 423.199 53.746 404.007 53.746 L 310.698 53.746 L 310.698 42.082 C 310.776 22.84 294.862 7.07 275.686 7.07 L 205.722 7.07 Z M 205.722 30.402 L 275.687 30.402 C 282.351 30.402 287.39 35.398 287.355 41.988 L 287.355 42.082 L 287.355 53.746 L 194.043 53.746 L 194.043 42.082 C 194.043 35.418 199.058 30.402 205.723 30.402 L 205.722 30.402 Z M 77.352 77.035 L 404.002 77.035 C 410.67 77.035 415.67 82.047 415.67 88.715 L 415.67 123.715 L 240.67 123.715 C 234.224 123.715 228.998 128.941 228.998 135.387 C 228.998 141.832 234.224 147.059 240.67 147.059 L 392.36 147.059 L 392.36 462.059 C 392.36 468.723 387.356 473.727 380.692 473.727 L 100.692 473.727 C 94.028 473.727 89.024 468.723 89.024 462.059 L 89.024 147.059 L 124.024 147.059 C 130.473 147.059 135.696 141.832 135.696 135.387 C 135.696 128.941 130.473 123.715 124.024 123.715 L 65.669 123.715 L 65.669 88.715 C 65.669 82.047 70.68 77.035 77.349 77.035 L 77.352 77.035 Z M 170.536 216.895 C 167.442 216.942 164.489 218.215 162.333 220.438 C 160.176 222.661 158.993 225.649 159.04 228.743 L 159.04 392.083 C 158.969 395.219 160.169 398.254 162.364 400.501 C 164.559 402.747 167.567 404.012 170.708 404.012 C 173.848 404.012 176.856 402.747 179.051 400.501 C 181.247 398.254 182.442 395.219 182.376 392.083 L 182.376 228.743 C 182.422 225.59 181.192 222.547 178.962 220.317 C 176.731 218.082 173.692 216.848 170.536 216.895 Z M 240.501 216.895 C 237.407 216.942 234.454 218.215 232.298 220.438 C 230.141 222.661 228.958 225.649 229.005 228.743 L 229.005 392.083 C 229.005 398.528 234.231 403.755 240.681 403.755 C 247.126 403.755 252.353 398.528 252.353 392.083 L 252.353 228.743 C 252.399 225.586 251.169 222.543 248.935 220.313 C 246.704 218.078 243.661 216.848 240.501 216.895 L 240.501 216.895 Z M 310.696 217.055 C 304.254 217.055 299.028 222.278 299.028 228.723 C 299.028 235.164 304.254 240.387 310.696 240.387 C 317.137 240.387 322.364 235.164 322.364 228.723 C 322.364 222.278 317.137 217.055 310.696 217.055 Z M 310.524 251.907 C 304.094 252.001 298.954 257.282 299.028 263.712 L 299.028 392.082 C 298.958 395.219 300.157 398.254 302.352 400.5 C 304.547 402.746 307.555 404.012 310.696 404.012 C 313.837 404.012 316.844 402.746 319.04 400.5 C 321.235 398.254 322.434 395.219 322.364 392.082 L 322.364 263.712 C 322.399 260.564 321.165 257.536 318.934 255.314 C 316.704 253.091 313.672 251.861 310.524 251.907 L 310.524 251.907 Z" fill-rule="evenodd" style="fill: rgb(255, 255, 255);"/>
</svg>