<?xml version="1.0" encoding="UTF-8"?>
<svg width="700pt" height="700pt" version="1.1" viewBox="0 0 700 700" xmlns="http://www.w3.org/2000/svg">
 <path d="m315.02 35.012c-19.188 0-35.012 15.824-35.012 35.012v11.664h-93.355c-19.188 0-34.969 15.781-34.969 34.969v46.676c0.003906 6.4258 5.1992 11.641 11.625 11.668h11.688v315c0 19.188 15.812 35 35 35h280c19.188 0 35-15.812 35-35v-315h11.656c6.4414 0 11.664-5.2227 11.664-11.668v-46.676c0-19.188-15.82-34.969-35.012-34.969h-93.309v-11.664c0.078125-19.242-15.836-35.012-35.012-35.012zm0 23.332h69.965c6.6641 0 11.703 4.9961 11.668 11.586v0.09375 11.664h-93.312v-11.664c0-6.6641 5.0156-11.68 11.68-11.68zm-128.37 46.633h326.65c6.668 0 11.668 5.0117 11.668 11.68v35h-175c-6.4453 0-11.672 5.2266-11.672 11.672s5.2266 11.672 11.672 11.672h151.69v315c0 6.6641-5.0039 11.668-11.668 11.668h-280c-6.6641 0-11.668-5.0039-11.668-11.668v-315h35c6.4492 0 11.672-5.2266 11.672-11.672s-5.2227-11.672-11.672-11.672h-58.355v-35c0-6.668 5.0117-11.68 11.68-11.68zm93.184 139.86c-3.0938 0.046875-6.0469 1.3203-8.2031 3.543-2.1562 2.2227-3.3398 5.2109-3.293 8.3047v163.34c-0.070312 3.1367 1.1289 6.1719 3.3242 8.418 2.1953 2.2461 5.2031 3.5117 8.3438 3.5117s6.1484-1.2656 8.3438-3.5117c2.1953-2.2461 3.3906-5.2812 3.3242-8.418v-163.34c0.046874-3.1523-1.1836-6.1953-3.4141-8.4258-2.2305-2.2344-5.2695-3.4688-8.4258-3.4219zm69.965 0c-3.0938 0.046875-6.0469 1.3203-8.2031 3.543-2.1562 2.2227-3.3398 5.2109-3.293 8.3047v163.34c0 6.4453 5.2266 11.672 11.676 11.672 6.4453 0 11.672-5.2266 11.672-11.672v-163.34c0.046875-3.1562-1.1836-6.1992-3.418-8.4297-2.2305-2.2344-5.2734-3.4648-8.4336-3.418zm70.195 0.16016c-6.4414 0-11.668 5.2227-11.668 11.668 0 6.4414 5.2266 11.664 11.668 11.664s11.668-5.2227 11.668-11.664c0-6.4453-5.2266-11.668-11.668-11.668zm-0.17188 34.852c-6.4297 0.09375-11.57 5.375-11.496 11.805v128.37c-0.070312 3.1367 1.1289 6.1719 3.3242 8.418s5.2031 3.5117 8.3438 3.5117 6.1484-1.2656 8.3438-3.5117 3.3945-5.2812 3.3242-8.418v-128.37c0.035156-3.1484-1.1992-6.1758-3.4297-8.3984-2.2305-2.2227-5.2617-3.4531-8.4102-3.4062z" fill-rule="evenodd"/>
</svg>
